<svg width="262" height="44" fill="none" xmlns="http://www.w3.org/2000/svg"><path d="M13.254 28.662H4.757a15.332 15.332 0 01-.484 2.18c-.651 2.156-1.98 4.026-3.985 5.608a.073.073 0 01-.054.022c-.136 0-.204-.065-.204-.194 0-.014.007-.032.022-.053 1.482-1.733 2.463-3.56 2.943-5.479.458-1.862.688-4.426.688-7.691 0-3.065-.043-4.995-.13-5.79.545.229 1.121.53 1.73.902h7.799c.465-.501.748-.752.849-.752.114 0 .437.211.967.634.236.207.354.372.354.494 0 .129-.197.326-.59.59v5.415l.085 10.033c0 .695-.28 1.192-.838 1.493-.35.194-.709.29-1.074.29-.158 0-.258-.021-.3-.064-.044-.043-.076-.14-.098-.29-.042-.287-.286-.527-.73-.72-.365-.172-.974-.355-1.826-.548-.057-.014-.086-.064-.086-.15 0-.122.036-.176.107-.161 1.196.114 2.181.172 2.954.172.265 0 .398-.162.398-.484v-5.457zm0-.548v-4.512H5.09c-.065 2.185-.143 3.689-.236 4.512h8.4zm0-5.06v-4.34H5.09v4.34h8.164zm14.135-.418h2.6c.343-.394.561-.591.654-.591.1 0 .387.211.86.634.236.215.354.383.354.505 0 .171-.25.318-.752.44a17.48 17.48 0 01-1.6 2.578C31.302 27.27 32.2 28.2 32.2 28.995c0 .194-.06.355-.183.483a.481.481 0 01-.365.162c-.186 0-.494-.273-.924-.817-.465-.587-1.088-1.21-1.869-1.869-.759.902-1.74 1.737-2.943 2.503.121.05.283.133.483.247h3.234c.336-.35.547-.526.633-.526.108 0 .326.14.656.419.25.214.376.368.376.462 0 .136-.122.304-.366.505v1.32l.065 3.32c0 .365-.25.548-.752.548-.351 0-.526-.147-.526-.44v-.42h-3.427v.903c0 .337-.265.505-.795.505-.337 0-.505-.133-.505-.398l.064-3.717v-2.223c-.83.444-1.536.788-2.116 1.031-.007.007-.018.01-.032.01-.107 0-.161-.064-.161-.192 0-.036.014-.061.043-.076 2.141-1.246 3.889-2.721 5.242-4.425-.594-.444-1.35-.92-2.267-1.43-.694.782-1.5 1.48-2.417 2.096a.12.12 0 01-.053.01c-.13 0-.194-.064-.194-.193 0-.029.008-.05.022-.064 1.418-1.354 2.496-2.858 3.233-4.512a7.23 7.23 0 00.527-1.644c.823.244 1.332.412 1.525.505.158.079.236.165.236.258 0 .165-.258.29-.773.376a9.04 9.04 0 01-.483.924zm-.323.548c-.33.508-.659.963-.988 1.364 1.174.508 1.994.884 2.46 1.128.63-.917 1.113-1.748 1.45-2.492h-2.922zm2.654 11.16v-4.092h-3.427v4.093h3.427zm-4.512-14.877h2.417v-1.278c0-.38-.036-.9-.108-1.558.91.093 1.504.19 1.784.29.193.072.29.172.29.3 0 .165-.23.348-.688.549v1.697h2.47c.359-.416.592-.623.7-.623.142 0 .457.236.944.709.251.229.376.412.376.548 0 .2-.218.311-.655.333a.959.959 0 00-.612.311c-.294.287-.63.587-1.01.902a.132.132 0 01-.075.022c-.086 0-.13-.036-.13-.108 0-.007.005-.017.012-.032.229-.601.386-1.106.472-1.514h-6.209c-.043.795-.232 1.425-.569 1.89-.28.394-.602.591-.967.591-.458 0-.687-.226-.687-.677 0-.33.182-.601.547-.816.788-.458 1.236-1.257 1.343-2.396.015-.057.054-.085.118-.085.086 0 .137.035.15.107.03.172.058.451.087.838zm11.225 2.052c.323-1.44.512-2.41.57-2.912h-2.664a7.41 7.41 0 00-1.386.13l-.215-.828c.494.1 1.02.15 1.58.15h6.584c.58-.673.931-1.01 1.053-1.01.114 0 .483.266 1.106.796.294.236.44.426.44.57 0 .128-.096.192-.29.192h-4.683c-.229.595-.48 1.153-.752 1.676l-.752 1.236h3.33c.437-.473.699-.71.785-.71.114 0 .393.19.837.57.265.23.398.4.398.515 0 .144-.19.334-.57.57v2.954l.108 6.617c0 .38-.28.57-.838.57-.365 0-.548-.154-.548-.462v-.398h-5.79v.355c0 .365-.265.547-.795.547-.394 0-.59-.146-.59-.44l.107-6.209c0-2.664-.036-4.4-.108-5.21.43.165.935.408 1.515.73h1.568zm4.093 3.158v-2.61h-5.79v2.61h5.79zm-5.79.548v2.578h5.79v-2.578h-5.79zm0 3.126v2.846h5.79v-2.846h-5.79zm3.846 4.887c-.043-.021-.065-.053-.065-.096 0-.108.047-.154.14-.14 1.425.25 2.567.698 3.427 1.343.687.523 1.031 1.049 1.031 1.579 0 .229-.06.412-.183.548a.499.499 0 01-.386.182c-.272 0-.509-.172-.71-.515-.816-1.225-1.9-2.192-3.254-2.9zm-7.788 3.416c-.115.022-.172-.043-.172-.193 0-.05.021-.082.064-.097a13.811 13.811 0 003.567-2.245c.53-.472.916-.906 1.16-1.3 1.117.602 1.676.996 1.676 1.182 0 .165-.172.247-.516.247-.143 0-.3-.014-.473-.043-1.547 1.167-3.315 1.984-5.306 2.45zM232.133 24.71v1.313c1.406.495 2.109 1.123 2.109 1.883 0 .375-.169.563-.508.563-.182 0-.333-.164-.453-.492-.25-.698-.633-1.243-1.148-1.633v2.273l.015 5.04c0 .307-.192.46-.578.46-.297 0-.445-.127-.445-.383a421.304 421.304 0 00.141-6.977c-.714 1.699-1.568 3.016-2.563 3.954a.095.095 0 01-.055.016c-.099 0-.148-.04-.148-.118 0-.01.003-.02.008-.03 1.187-1.652 2.039-3.608 2.554-5.868h-1.265a4.65 4.65 0 00-.93.094l-.164-.61a5.6 5.6 0 001.094.117h1.406v-2.64c-.568.146-1.307.273-2.219.383-.067.01-.101-.032-.101-.125 0-.042.018-.07.055-.086 1.473-.407 2.71-.912 3.71-1.516a4.42 4.42 0 00.782-.61c.672.5 1.008.803 1.008.907 0 .13-.112.195-.336.195a3.02 3.02 0 01-.383-.03c-.495.239-1.024.447-1.586.624v2.898h.836c.328-.437.534-.656.617-.656.094 0 .344.172.75.516.182.15.273.279.273.383 0 .104-.067.156-.203.156h-2.273zm7.664 2.58v4.976c0 .24.078.395.234.468.136.058.399.086.789.086.693 0 1.138-.101 1.336-.304.203-.198.417-.81.641-1.836.01-.042.044-.063.101-.063.073 0 .11.026.11.078-.021.64-.031 1.11-.031 1.407 0 .177.085.294.257.351.183.047.274.18.274.399 0 .27-.203.484-.61.64-.447.151-1.114.227-2 .227-.854 0-1.421-.102-1.703-.305-.239-.177-.359-.487-.359-.93l.016-1.484v-3.71h-3.008v.515c0 .244-.193.367-.578.367-.266 0-.399-.112-.399-.336l.047-2.898c0-1.193-.021-2.032-.062-2.516.421.182.794.37 1.117.562h2.976c.323-.505.683-1.226 1.078-2.164.188-.458.316-.836.383-1.133.61.276.995.467 1.156.57.141.09.211.173.211.25 0 .141-.203.22-.609.235a13.885 13.885 0 01-1.734 2.242h1.453c.302-.343.492-.515.57-.515.083 0 .281.133.594.398.193.167.289.302.289.406 0 .094-.133.227-.398.399v1.187l.046 2.797c0 .266-.198.399-.593.399-.266 0-.399-.102-.399-.305v-.46h-1.195zm1.195-.4v-3.507h-5.148v3.508h5.148zm-5.508-6.85c-.015-.011-.023-.024-.023-.04 0-.078.042-.117.125-.117.016 0 .029.002.039.008.63.302 1.128.664 1.492 1.086.302.349.453.671.453.968 0 .22-.06.393-.179.524a.51.51 0 01-.383.164c-.25 0-.412-.209-.485-.625a4.015 4.015 0 00-1.039-1.969zm-2.382 13.983h-.024c-.068 0-.101-.049-.101-.148 0-.036.013-.063.039-.078 1.114-.563 1.953-1.242 2.515-2.04.479-.681.797-1.51.953-2.484a9.023 9.023 0 00.133-1.398.671.671 0 00-.015-.14c.656.098 1.059.171 1.21.218.152.042.227.107.227.195 0 .12-.159.232-.477.336-.161 1.552-.635 2.774-1.421 3.664-.688.782-1.701 1.407-3.039 1.875zm14.209-13.757a.088.088 0 01-.016-.047c0-.058.037-.086.11-.086a.09.09 0 01.039.008c.765.276 1.367.63 1.804 1.062.37.36.555.709.555 1.047 0 .24-.065.43-.195.57a.584.584 0 01-.461.196c-.219 0-.388-.203-.508-.61-.224-.797-.667-1.51-1.328-2.14zm13.539 9.914c.021.01.031.026.031.047 0 .052-.031.09-.093.117-.183.057-.316.138-.399.242-.083.094-.169.253-.258.477-.057.14-.133.21-.226.21-.094 0-.274-.111-.539-.335-1.042-.912-1.855-1.904-2.438-2.977-.479-.88-.901-2.128-1.265-3.742-.782 2.849-2.448 5.133-5 6.851a.072.072 0 01-.032.008c-.078 0-.117-.05-.117-.148 0-.021.005-.04.016-.055 1.468-1.349 2.567-2.852 3.297-4.508.661-1.495 1.091-3.263 1.289-5.305h-2.188c-.37 0-.755.032-1.156.094l-.141-.617a5.94 5.94 0 001.282.125h1.984c.328-.344.531-.516.609-.516.068 0 .253.133.555.399.193.177.289.3.289.367 0 .099-.234.287-.703.563.073 2.166.664 4.075 1.773 5.726.521.776 1.086 1.406 1.696 1.89.442.36 1.02.722 1.734 1.087zm.258 1.953c.057-.01.086.02.086.094 0 .046-.018.08-.055.101-.208.115-.344.224-.406.328-.057.094-.097.24-.117.438-.026.156-.123.242-.289.258a47.784 47.784 0 01-4.094.156c-2.761 0-4.557-.294-5.391-.883-.64-.438-1.13-1.096-1.469-1.977a17.148 17.148 0 01-1.828 2.204v.125c0 .395-.08.593-.242.593-.13 0-.453-.495-.969-1.484.25-.068.542-.185.875-.352a7.959 7.959 0 001.555-1.054v-4.102h-1.039c-.417 0-.812.04-1.187.117l-.157-.64a6.49 6.49 0 001.344.125h.93c.338-.375.544-.563.617-.563.094 0 .312.151.656.453.172.146.258.274.258.383 0 .094-.143.237-.43.43v3.828c.339.635.808 1.083 1.407 1.344.807.317 2.309.476 4.507.476a39.24 39.24 0 005.438-.398zM63.86 28.781h6.874v.953H63.86v3.078c0 1.573.11 2.516.328 2.829.22.302.6.51 1.141.625.24.052.682.099 1.328.14.188 0 .281.12.281.36 0 .208-.093.312-.28.312-1.563-.083-2.772-.125-3.626-.125-.854 0-2 .042-3.437.125-.188 0-.282-.104-.282-.312 0-.209.094-.328.282-.36 1.093-.083 1.786-.317 2.078-.703.302-.396.453-1.36.453-2.89v-3.079h-6.781v-.953h6.781v-1.218l-.031-.985-.578-1.062h-6.172v-.953h5.562l-3.422-5.641c-.885-1.438-1.515-2.365-1.89-2.781-.49-.563-1.25-.86-2.282-.891-.208-.031-.312-.151-.312-.36 0-.229.104-.343.313-.343 1.604.083 2.854.125 3.75.125.77 0 1.874-.042 3.312-.125.167 0 .25.104.25.312 0 .23-.083.36-.25.391-.813.073-1.307.13-1.484.172-.396.094-.641.24-.735.437a.62.62 0 00-.062.282c0 .343.349 1.088 1.047 2.234L62.25 23.5c.396.646.802 1.318 1.219 2.016.104-.167.37-.573.797-1.22.28-.426.51-.786.687-1.077l2.625-4.266c.75-1.24 1.125-2.094 1.125-2.562 0-.125-.016-.24-.047-.344-.073-.313-.25-.521-.531-.625-.188-.063-.578-.12-1.172-.172-.187-.031-.281-.151-.281-.36 0-.229.094-.343.281-.343 1.51.083 2.422.125 2.734.125.657 0 1.704-.042 3.141-.125.209 0 .313.104.313.312 0 .23-.105.36-.313.391-.531.052-.911.13-1.14.234-.23.104-.49.292-.782.563-.312.312-1.062 1.4-2.25 3.265l-3.36 5.25h5.438v.954h-6.046l-.797 1.218-.032 1.313v.734zm33.266 7.779c-2.132-.066-5.25-.098-9.35-.098-3.793 0-6.723.032-8.79.098-.407 0-.61-.302-.61-.904 0-.52.114-.976.342-1.367a83.016 83.016 0 014.492-6.42c.7-.912 2.335-2.939 4.907-6.08 2.8-3.271 4.574-5.566 5.322-6.885 1.026-1.79 1.538-3.678 1.538-5.664 0-2.116-.586-3.84-1.758-5.176-1.09-1.253-2.522-1.88-4.296-1.88-1.319 0-2.49.359-3.516 1.075-.749.52-1.326 1.147-1.733 1.88-.424.813-.635 2.05-.635 3.71 0 .733-.326 1.295-.977 1.685-.472.277-1.033.415-1.684.415-.798 0-1.197-.586-1.197-1.758 0-2.018 1.01-3.947 3.028-5.786 1.937-1.774 4.175-2.66 6.714-2.66 3.076 0 5.46.919 7.153 2.758 1.432 1.546 2.148 3.507 2.148 5.884 0 2.8-.854 5.314-2.563 7.544-.586.765-2.417 2.685-5.493 5.761-4.932 4.948-8.098 8.7-9.497 11.255h8.398c2.311 0 3.906-.081 4.785-.244.684-.13 1.262-.366 1.734-.708 1.025-.781 1.888-2.132 2.588-4.053.065-.244.203-.366.415-.366.081 0 .195.025.341.073.326.098.489.228.489.391a.564.564 0 01-.05.195 145.143 145.143 0 01-2.245 7.325zm28.047-17.7c-1.888 2.604-4.191 3.906-6.91 3.906-2.929 0-5.314-1.148-7.153-3.443-1.595-1.985-2.392-4.41-2.392-7.275 0-3.386 1.098-6.193 3.295-8.423 1.888-1.92 4.102-2.88 6.641-2.88 3.141 0 5.664 1.358 7.568 4.076 1.726 2.458 2.588 5.567 2.588 9.326 0 9.05-2.946 15.617-8.838 19.703a25.357 25.357 0 01-7.666 3.564c-.488 0-.919-.285-1.294-.854-.162-.277-.244-.53-.244-.757 0-.293.147-.44.44-.44 2.62-.097 4.907-.765 6.86-2.002 2.23-1.432 3.931-3.32 5.103-5.664 1.139-2.246 1.92-5.143 2.343-8.691l-.341-.147zm-6.519-16.675c-2.165 0-3.882 1.041-5.151 3.125-1.058 1.741-1.587 3.89-1.587 6.445 0 2.864.675 5.176 2.026 6.934 1.221 1.61 2.792 2.416 4.712 2.416 2.621 0 4.688-1.448 6.201-4.345.537-1.026.806-2.198.806-3.516 0-3.548-.708-6.34-2.124-8.374-1.253-1.79-2.881-2.685-4.883-2.685zm17.825 33.471c0 2.67-1.53 5.087-4.59 7.251-.146.098-.268.147-.366.147-.114 0-.26-.106-.439-.318-.13-.162-.196-.3-.196-.415 0-.114.098-.236.293-.366 1.872-1.335 2.808-2.67 2.808-4.004 0-.44-.252-.822-.757-1.147-.618-.375-.976-.61-1.074-.708-.309-.277-.464-.578-.464-.904 0-.732.285-1.383.855-1.953.504-.488 1.066-.732 1.684-.732.57 0 1.083.293 1.538.879.472.586.708 1.342.708 2.27zm17.707-18.603c2.735 1.432 4.712 2.994 5.933 4.687 1.172 1.644 1.758 3.548 1.758 5.713 0 2.995-1.026 5.453-3.076 7.373-1.84 1.725-4.126 2.588-6.861 2.588-3.255 0-5.859-1.058-7.812-3.174-1.628-1.79-2.442-3.963-2.442-6.518 0-3.858 2.596-7.113 7.788-9.766-4.524-2.344-6.787-5.314-6.787-8.911 0-2.376 1.018-4.41 3.052-6.104 1.774-1.464 3.825-2.197 6.152-2.197 2.719 0 4.965.87 6.739 2.612 1.53 1.514 2.295 3.296 2.295 5.347 0 2.002-.643 3.711-1.929 5.127-1.074 1.188-2.678 2.262-4.81 3.223zm-1.538-.708c1.839-.668 3.28-1.79 4.322-3.37.862-1.301 1.293-2.693 1.293-4.174 0-1.97-.683-3.605-2.05-4.907-1.188-1.14-2.629-1.71-4.322-1.71-1.969 0-3.588.75-4.858 2.247-1.058 1.22-1.587 2.588-1.587 4.101 0 1.758.472 3.166 1.416 4.224 1.058 1.188 2.987 2.384 5.786 3.589zm-1.709 2.27c-2.083 1.042-3.694 2.434-4.834 4.175-1.009 1.546-1.513 3.19-1.513 4.932 0 2.62.748 4.695 2.246 6.225 1.318 1.351 3.019 2.027 5.102 2.027 2.181 0 3.988-.871 5.42-2.613 1.205-1.48 1.807-3.214 1.807-5.2 0-2.148-.676-3.963-2.027-5.444-1.253-1.367-3.32-2.735-6.201-4.102zM181.843.744c3.19 0 5.729 1.888 7.617 5.664 1.644 3.304 2.466 7.503 2.466 12.598 0 5.957-1.042 10.628-3.125 14.014-1.807 2.93-4.126 4.394-6.958 4.394-3.402 0-5.998-1.831-7.789-5.493-1.546-3.158-2.319-7.365-2.319-12.622 0-6.071 1.058-10.8 3.174-14.185 1.807-2.913 4.118-4.37 6.934-4.37zm0 1.44c-4.574 0-6.861 5.656-6.861 16.968 0 11.214 2.287 16.822 6.861 16.822 4.557 0 6.836-5.607 6.836-16.822 0-11.312-2.279-16.967-6.836-16.967zm30-1.44c3.19 0 5.729 1.888 7.617 5.664 1.644 3.304 2.466 7.503 2.466 12.598 0 5.957-1.042 10.628-3.125 14.014-1.807 2.93-4.126 4.394-6.958 4.394-3.402 0-5.998-1.831-7.789-5.493-1.546-3.158-2.319-7.365-2.319-12.622 0-6.071 1.058-10.8 3.174-14.185 1.807-2.913 4.118-4.37 6.934-4.37zm0 1.44c-4.574 0-6.861 5.656-6.861 16.968 0 11.214 2.287 16.822 6.861 16.822 4.557 0 6.836-5.607 6.836-16.822 0-11.312-2.279-16.967-6.836-16.967z" fill="#8B6C3A"/></svg>