<svg width="446" height="69" viewBox="0 0 446 69" fill="none" xmlns="http://www.w3.org/2000/svg">
<path d="M24.7344 48.4756H9.28516C9.12891 49.6345 8.83594 50.9561 8.40625 52.4405C7.22135 56.3598 4.80599 59.7582 1.16016 62.6358C1.13411 62.6618 1.10156 62.6749 1.0625 62.6749C0.815104 62.6749 0.691406 62.5577 0.691406 62.3233C0.691406 62.2973 0.704427 62.2647 0.730469 62.2256C3.42578 59.0746 5.20964 55.7543 6.08203 52.2647C6.91536 48.8793 7.33203 44.2178 7.33203 38.2803C7.33203 32.7074 7.25391 29.1983 7.09766 27.753C8.08724 28.1697 9.13542 28.7165 10.2422 29.3936H24.4219C25.2682 28.4822 25.7826 28.0264 25.9648 28.0264C26.1732 28.0264 26.7591 28.4105 27.7227 29.1788C28.1523 29.5564 28.3672 29.8559 28.3672 30.0772C28.3672 30.3116 28.0091 30.6697 27.293 31.1514V40.9952L27.4492 59.2374C27.4492 60.5004 26.9414 61.4053 25.9258 61.9522C25.2878 62.3038 24.6367 62.4796 23.9727 62.4796C23.6862 62.4796 23.5039 62.4405 23.4258 62.3624C23.3477 62.2842 23.2891 62.1085 23.25 61.835C23.1719 61.3142 22.7292 60.878 21.9219 60.5264C21.2578 60.2139 20.151 59.8819 18.6016 59.5303C18.4974 59.5043 18.4453 59.4131 18.4453 59.2569C18.4453 59.0355 18.5104 58.9379 18.6406 58.9639C20.8151 59.1723 22.6055 59.2764 24.0117 59.2764C24.4935 59.2764 24.7344 58.9835 24.7344 58.3975V48.4756ZM24.7344 47.4796V39.2764H9.89062C9.77344 43.2478 9.63021 45.9822 9.46094 47.4796H24.7344ZM24.7344 38.2803V30.3897H9.89062V38.2803H24.7344Z" fill="#8B6C3A"/>
<path d="M50.4336 37.5186H55.1602C55.7852 36.8025 56.1823 36.4444 56.3516 36.4444C56.5339 36.4444 57.0547 36.8285 57.9141 37.5967C58.3438 37.9874 58.5586 38.2934 58.5586 38.5147C58.5586 38.8272 58.1029 39.0941 57.1914 39.3155C56.2799 41.0863 55.3099 42.6488 54.2812 44.003C57.5495 45.9431 59.1836 47.6358 59.1836 49.0811C59.1836 49.4327 59.0729 49.7256 58.8516 49.96C58.6693 50.1553 58.4479 50.253 58.1875 50.253C57.849 50.253 57.2891 49.7582 56.5078 48.7686C55.6615 47.7009 54.5286 46.5681 53.1094 45.3702C51.7292 47.0108 49.9453 48.5277 47.7578 49.921C47.9792 50.0121 48.2721 50.1618 48.6367 50.3702H54.5156C55.1276 49.7322 55.5117 49.4131 55.668 49.4131C55.8633 49.4131 56.2604 49.6671 56.8594 50.1749C57.3151 50.5655 57.543 50.8454 57.543 51.0147C57.543 51.2621 57.3216 51.5681 56.8789 51.9327V54.335L56.9961 60.3702C56.9961 61.0342 56.5404 61.3663 55.6289 61.3663C54.9909 61.3663 54.6719 61.0993 54.6719 60.5655V59.8038H48.4414V61.4444C48.4414 62.0564 47.9596 62.3624 46.9961 62.3624C46.3841 62.3624 46.0781 62.1215 46.0781 61.6397L46.1953 54.8819V50.8389C44.6849 51.6462 43.4023 52.2712 42.3477 52.7139C42.3346 52.7269 42.3151 52.7335 42.2891 52.7335C42.0938 52.7335 41.9961 52.6163 41.9961 52.3819C41.9961 52.3168 42.0221 52.2712 42.0742 52.2452C45.9674 49.9796 49.1445 47.2973 51.6055 44.1983C50.5247 43.391 49.151 42.5251 47.4844 41.6006C46.2214 43.0199 44.7565 44.2894 43.0898 45.4092C43.0638 45.4223 43.0312 45.4288 42.9922 45.4288C42.7578 45.4288 42.6406 45.3116 42.6406 45.0772C42.6406 45.0251 42.6536 44.9861 42.6797 44.96C45.2578 42.4991 47.2174 39.7647 48.5586 36.7569C49.0273 35.7022 49.3464 34.7061 49.5156 33.7686C51.013 34.2113 51.9375 34.5173 52.2891 34.6866C52.5755 34.8298 52.7188 34.9861 52.7188 35.1553C52.7188 35.4548 52.25 35.6827 51.3125 35.8389C51 36.516 50.707 37.0759 50.4336 37.5186ZM49.8477 38.5147C49.2487 39.4392 48.6497 40.266 48.0508 40.9952C50.1862 41.9197 51.6771 42.6033 52.5234 43.046C53.6693 41.3793 54.5482 39.8689 55.1602 38.5147H49.8477ZM54.6719 58.8077V51.3663H48.4414V58.8077H54.6719ZM46.4688 31.7569H50.8633V29.4327C50.8633 28.7426 50.7982 27.7986 50.668 26.6006C52.3216 26.7699 53.4023 26.9457 53.9102 27.128C54.2617 27.2582 54.4375 27.4405 54.4375 27.6749C54.4375 27.9743 54.0208 28.3064 53.1875 28.671V31.7569H57.6797C58.3307 31.0017 58.7539 30.6241 58.9492 30.6241C59.2096 30.6241 59.7826 31.0538 60.668 31.9131C61.1237 32.3298 61.3516 32.6618 61.3516 32.9092C61.3516 33.2738 60.9544 33.4756 60.1602 33.5147C59.7435 33.5538 59.3724 33.7426 59.0469 34.0811C58.513 34.6019 57.901 35.1488 57.2109 35.7217C57.1719 35.7478 57.1263 35.7608 57.0742 35.7608C56.918 35.7608 56.8398 35.6957 56.8398 35.5655C56.8398 35.5525 56.8464 35.5329 56.8594 35.5069C57.276 34.4131 57.5625 33.4952 57.7188 32.753H46.4297C46.3516 34.1983 46.0065 35.3441 45.3945 36.1905C44.8867 36.9066 44.3008 37.2647 43.6367 37.2647C42.8034 37.2647 42.3867 36.8546 42.3867 36.0342C42.3867 35.4353 42.7188 34.9405 43.3828 34.5499C44.8151 33.7165 45.6289 32.2647 45.8242 30.1944C45.8503 30.0902 45.9219 30.0381 46.0391 30.0381C46.1953 30.0381 46.2865 30.1033 46.3125 30.2335C46.3646 30.546 46.4167 31.0538 46.4688 31.7569ZM66.8789 35.4874C67.4648 32.8702 67.8099 31.1059 67.9141 30.1944H63.0703C62.224 30.1944 61.3841 30.2725 60.5508 30.4288L60.1602 28.9249C61.0586 29.1072 62.0156 29.1983 63.0312 29.1983H75.0039C76.0586 27.9743 76.6966 27.3624 76.918 27.3624C77.1263 27.3624 77.7969 27.8441 78.9297 28.8077C79.4635 29.2374 79.7305 29.5824 79.7305 29.8428C79.7305 30.0772 79.5547 30.1944 79.2031 30.1944H70.6875C70.2708 31.2751 69.8151 32.2908 69.3203 33.2413L67.9531 35.4874H74.0078C74.8021 34.628 75.2773 34.1983 75.4336 34.1983C75.6419 34.1983 76.1497 34.5434 76.957 35.2335C77.4388 35.6501 77.6797 35.9626 77.6797 36.171C77.6797 36.4314 77.3346 36.7764 76.6445 37.2061V42.5772L76.8398 54.6085C76.8398 55.2986 76.332 55.6436 75.3164 55.6436C74.6523 55.6436 74.3203 55.3637 74.3203 54.8038V54.0811H63.793V54.7256C63.793 55.3897 63.3112 55.7217 62.3477 55.7217C61.6315 55.7217 61.2734 55.4548 61.2734 54.921L61.4688 43.6319C61.4688 38.7881 61.4036 35.6306 61.2734 34.1592C62.0547 34.4587 62.9727 34.9014 64.0273 35.4874H66.8789ZM74.3203 41.2296V36.4835H63.793V41.2296H74.3203ZM63.793 42.2256V46.9131H74.3203V42.2256H63.793ZM63.793 47.9092V53.085H74.3203V47.9092H63.793ZM70.7852 56.796C70.707 56.7569 70.668 56.6983 70.668 56.6202C70.668 56.4249 70.7526 56.3402 70.9219 56.3663C73.513 56.822 75.5898 57.6358 77.1523 58.8077C78.4023 59.7582 79.0273 60.7152 79.0273 61.6788C79.0273 62.0954 78.9167 62.4275 78.6953 62.6749C78.5 62.8962 78.2656 63.0069 77.9922 63.0069C77.4974 63.0069 77.0677 62.6944 76.7031 62.0694C75.2188 59.8428 73.2461 58.085 70.7852 56.796ZM56.625 63.0069C56.4167 63.046 56.3125 62.9288 56.3125 62.6553C56.3125 62.5642 56.3516 62.5056 56.4297 62.4796C58.7995 61.4509 60.9609 60.0902 62.9141 58.3975C63.8776 57.5381 64.5807 56.7504 65.0234 56.0342C67.0547 57.128 68.0703 57.8441 68.0703 58.1827C68.0703 58.4822 67.7578 58.6319 67.1328 58.6319C66.8724 58.6319 66.5859 58.6059 66.2734 58.5538C63.4609 60.6762 60.2448 62.1605 56.625 63.0069Z" fill="#8B6C3A"/>
<path d="M121.719 41.5616H135.469V43.4678H121.719V49.6241C121.719 52.7699 121.938 54.6553 122.375 55.2803C122.812 55.8845 123.573 56.3012 124.656 56.5303C125.135 56.6345 126.021 56.7283 127.312 56.8116C127.688 56.8116 127.875 57.0512 127.875 57.5303C127.875 57.947 127.688 58.1553 127.312 58.1553C124.188 57.9887 121.771 57.9053 120.062 57.9053C118.354 57.9053 116.062 57.9887 113.188 58.1553C112.812 58.1553 112.625 57.947 112.625 57.5303C112.625 57.1137 112.812 56.8741 113.188 56.8116C115.375 56.6449 116.76 56.1762 117.344 55.4053C117.948 54.6137 118.25 52.6866 118.25 49.6241V43.4678H104.688V41.5616H118.25V39.1241L118.188 37.1553L117.031 35.0303H104.688V33.1241H115.812L108.969 21.8428C107.198 18.9678 105.938 17.1137 105.188 16.2803C104.208 15.1553 102.688 14.5616 100.625 14.4991C100.208 14.4366 100 14.197 100 13.7803C100 13.322 100.208 13.0928 100.625 13.0928C103.833 13.2595 106.333 13.3428 108.125 13.3428C109.667 13.3428 111.875 13.2595 114.75 13.0928C115.083 13.0928 115.25 13.3012 115.25 13.7178C115.25 14.1762 115.083 14.4366 114.75 14.4991C113.125 14.6449 112.135 14.7595 111.781 14.8428C110.99 15.0303 110.5 15.322 110.312 15.7178C110.229 15.8845 110.188 16.072 110.188 16.2803C110.188 16.9678 110.885 18.4574 112.281 20.7491L118.5 30.9991C119.292 32.2908 120.104 33.6345 120.938 35.0303C121.146 34.697 121.677 33.8845 122.531 32.5928C123.094 31.7387 123.552 31.0199 123.906 30.4366L129.156 21.9053C130.656 19.4262 131.406 17.7178 131.406 16.7803C131.406 16.5303 131.375 16.3012 131.312 16.0928C131.167 15.4678 130.812 15.0512 130.25 14.8428C129.875 14.7178 129.094 14.6033 127.906 14.4991C127.531 14.4366 127.344 14.197 127.344 13.7803C127.344 13.322 127.531 13.0928 127.906 13.0928C130.927 13.2595 132.75 13.3428 133.375 13.3428C134.688 13.3428 136.781 13.2595 139.656 13.0928C140.073 13.0928 140.281 13.3012 140.281 13.7178C140.281 14.1762 140.073 14.4366 139.656 14.4991C138.594 14.6033 137.833 14.7595 137.375 14.9678C136.917 15.1762 136.396 15.5512 135.812 16.0928C135.188 16.7178 133.688 18.8949 131.312 22.6241L124.594 33.1241H135.469V35.0303H123.375L121.781 37.4678L121.719 40.0928V41.5616Z" fill="#8B6C3A"/>
<path d="M179.931 57.6944C176.52 57.5902 171.533 57.5381 164.97 57.5381C158.903 57.5381 154.215 57.5902 150.908 57.6944C150.257 57.6944 149.931 57.2126 149.931 56.2491C149.931 55.4158 150.114 54.6866 150.478 54.0616C152.77 50.4418 155.166 47.0173 157.666 43.7881C158.785 42.3298 161.403 39.0876 165.517 34.0616C169.996 28.8272 172.835 25.1553 174.033 23.046C175.673 20.1814 176.494 17.1605 176.494 13.9835C176.494 10.598 175.556 7.83763 173.681 5.70221C171.936 3.697 169.645 2.6944 166.806 2.6944C164.697 2.6944 162.822 3.26731 161.181 4.41315C159.983 5.24648 159.059 6.24908 158.408 7.42096C157.731 8.72304 157.392 10.7022 157.392 13.3585C157.392 14.5303 156.871 15.4288 155.83 16.0538C155.074 16.4965 154.176 16.7178 153.134 16.7178C151.858 16.7178 151.22 15.7803 151.22 13.9053C151.22 10.6762 152.835 7.59023 156.064 4.64752C159.163 1.80898 162.744 0.389709 166.806 0.389709C171.728 0.389709 175.543 1.86106 178.252 4.80377C180.543 7.27773 181.689 10.4158 181.689 14.2178C181.689 18.697 180.322 22.7204 177.587 26.2881C176.65 27.5121 173.72 30.585 168.798 35.5069C160.908 43.4236 155.843 49.4262 153.603 53.5147H167.041C170.739 53.5147 173.291 53.3845 174.697 53.1241C175.791 52.9158 176.715 52.5381 177.47 51.9913C179.111 50.7413 180.491 48.5798 181.611 45.5069C181.715 45.1163 181.936 44.921 182.275 44.921C182.405 44.921 182.587 44.96 182.822 45.0381C183.343 45.1944 183.603 45.4027 183.603 45.6631C183.603 45.7413 183.577 45.8454 183.525 45.9756C182.327 50.2465 181.129 54.1527 179.931 57.6944Z" fill="#8B6C3A"/>
<path d="M224.806 29.3741C221.785 33.5408 218.101 35.6241 213.752 35.6241C209.064 35.6241 205.249 33.7881 202.306 30.1163C199.754 26.9392 198.478 23.059 198.478 18.4756C198.478 13.059 200.236 8.56679 203.752 4.99908C206.772 1.92617 210.314 0.389709 214.377 0.389709C219.403 0.389709 223.439 2.56419 226.486 6.91315C229.246 10.8454 230.627 15.8194 230.627 21.835C230.627 36.3142 225.913 46.822 216.486 53.3585C212.736 55.9366 208.647 57.8376 204.22 59.0616C203.439 59.0616 202.749 58.6059 202.15 57.6944C201.89 57.2517 201.759 56.848 201.759 56.4835C201.759 56.0147 201.994 55.7803 202.462 55.7803C206.655 55.6241 210.314 54.5564 213.439 52.5772C217.007 50.2855 219.728 47.2647 221.603 43.5147C223.426 39.921 224.676 35.2855 225.353 29.6085L224.806 29.3741ZM214.377 2.6944C210.913 2.6944 208.166 4.36106 206.134 7.6944C204.442 10.4809 203.595 13.9184 203.595 18.0069C203.595 22.5902 204.676 26.2881 206.837 29.1006C208.791 31.6788 211.304 32.9678 214.377 32.9678C218.569 32.9678 221.877 30.6501 224.298 26.0147C225.158 24.3741 225.587 22.4991 225.587 20.3897C225.587 14.7126 224.455 10.2465 222.189 6.99127C220.184 4.12669 217.58 2.6944 214.377 2.6944Z" fill="#8B6C3A"/>
<path d="M242.897 56.2491C242.897 60.5199 240.449 64.3871 235.553 67.8506C235.319 68.0069 235.123 68.085 234.967 68.085C234.785 68.085 234.551 67.9158 234.264 67.5772C234.056 67.3168 233.952 67.0954 233.952 66.9131C233.952 66.7309 234.108 66.5355 234.42 66.3272C237.415 64.1918 238.913 62.0564 238.913 59.921C238.913 59.2178 238.509 58.6059 237.702 58.085C236.712 57.4861 236.139 57.1085 235.983 56.9522C235.488 56.5095 235.241 56.0277 235.241 55.5069C235.241 54.335 235.696 53.2934 236.608 52.3819C237.415 51.6006 238.314 51.21 239.303 51.21C240.215 51.21 241.035 51.6788 241.764 52.6163C242.519 53.5538 242.897 54.7647 242.897 56.2491Z" fill="#8B6C3A"/>
<path d="M271.228 26.4835C275.603 28.7751 278.767 31.2751 280.72 33.9835C282.595 36.6137 283.533 39.6605 283.533 43.1241C283.533 47.9158 281.892 51.848 278.611 54.921C275.668 57.6814 272.009 59.0616 267.634 59.0616C262.426 59.0616 258.259 57.3689 255.134 53.9835C252.53 51.1189 251.228 47.6423 251.228 43.5538C251.228 37.3819 255.382 32.1736 263.689 27.9288C256.449 24.1788 252.83 19.4262 252.83 13.671C252.83 9.86888 254.457 6.61367 257.712 3.90533C260.551 1.56158 263.832 0.389709 267.556 0.389709C271.905 0.389709 275.499 1.78294 278.337 4.5694C280.785 6.99127 282.009 9.84283 282.009 13.1241C282.009 16.3272 280.981 19.0616 278.923 21.3272C277.205 23.2283 274.64 24.947 271.228 26.4835ZM268.767 25.3506C271.71 24.2829 274.015 22.4861 275.681 19.96C277.061 17.8767 277.752 15.6501 277.752 13.2803C277.752 10.1293 276.658 7.51211 274.47 5.42877C272.569 3.60586 270.265 2.6944 267.556 2.6944C264.405 2.6944 261.814 3.89231 259.783 6.28815C258.09 8.24127 257.244 10.4288 257.244 12.8506C257.244 15.6631 257.999 17.9158 259.509 19.6085C261.202 21.5095 264.288 23.4236 268.767 25.3506ZM266.033 28.9835C262.699 30.6501 260.121 32.8767 258.298 35.6631C256.684 38.1371 255.877 40.7673 255.877 43.5538C255.877 47.7465 257.074 51.0668 259.47 53.5147C261.58 55.6762 264.301 56.7569 267.634 56.7569C271.124 56.7569 274.015 55.3637 276.306 52.5772C278.233 50.2074 279.197 47.434 279.197 44.2569C279.197 40.8194 278.116 37.9158 275.955 35.546C273.949 33.3585 270.642 31.171 266.033 28.9835Z" fill="#8B6C3A"/>
<path d="M315.478 0.389709C320.582 0.389709 324.645 3.41054 327.666 9.45221C330.296 14.7387 331.611 21.4574 331.611 29.6085C331.611 39.1397 329.944 46.6137 326.611 52.0303C323.72 56.7178 320.009 59.0616 315.478 59.0616C310.035 59.0616 305.882 56.1319 303.017 50.2725C300.543 45.2204 299.306 38.4887 299.306 30.0772C299.306 20.3637 300.999 12.7986 304.384 7.3819C307.275 2.72044 310.973 0.389709 315.478 0.389709ZM315.478 2.6944C308.16 2.6944 304.502 11.7439 304.502 29.8428C304.502 47.7855 308.16 56.7569 315.478 56.7569C322.77 56.7569 326.416 47.7855 326.416 29.8428C326.416 11.7439 322.77 2.6944 315.478 2.6944Z" fill="#8B6C3A"/>
<path d="M363.478 0.389709C368.582 0.389709 372.645 3.41054 375.666 9.45221C378.296 14.7387 379.611 21.4574 379.611 29.6085C379.611 39.1397 377.944 46.6137 374.611 52.0303C371.72 56.7178 368.009 59.0616 363.478 59.0616C358.035 59.0616 353.882 56.1319 351.017 50.2725C348.543 45.2204 347.306 38.4887 347.306 30.0772C347.306 20.3637 348.999 12.7986 352.384 7.3819C355.275 2.72044 358.973 0.389709 363.478 0.389709ZM363.478 2.6944C356.16 2.6944 352.502 11.7439 352.502 29.8428C352.502 47.7855 356.16 56.7569 363.478 56.7569C370.77 56.7569 374.416 47.7855 374.416 29.8428C374.416 11.7439 370.77 2.6944 363.478 2.6944Z" fill="#8B6C3A"/>
<path d="M400.353 47.5421H398.361C397.884 47.5421 397.388 47.5889 396.873 47.6827L396.65 46.7921C397.189 46.8936 397.759 46.9444 398.361 46.9444H400.517V42.9366C399.345 43.2335 398.209 43.4561 397.107 43.6046C397.005 43.6202 396.955 43.5577 396.955 43.4171C396.955 43.3546 396.982 43.3116 397.037 43.2881C399.349 42.6631 401.283 41.8897 402.837 40.9678C403.322 40.671 403.634 40.4288 403.775 40.2413C404.627 40.8819 405.052 41.2764 405.052 41.4249C405.052 41.5967 404.88 41.6827 404.537 41.6827C404.38 41.6827 404.193 41.6671 403.974 41.6358C403.248 41.9874 402.462 42.3077 401.619 42.5967V46.9444H403.107C403.584 46.3663 403.873 46.0772 403.974 46.0772C404.068 46.0772 404.427 46.3272 405.052 46.8272C405.31 47.0303 405.439 47.1983 405.439 47.3311C405.439 47.4717 405.334 47.5421 405.123 47.5421H401.619V49.5108C402.603 49.9327 403.384 50.4249 403.962 50.9874C404.462 51.4796 404.712 51.9405 404.712 52.3702C404.712 52.8624 404.537 53.1085 404.185 53.1085C403.998 53.1085 403.791 52.8624 403.564 52.3702C403.087 51.2999 402.439 50.4835 401.619 49.921V54.2335C401.619 56.5616 401.638 58.4444 401.677 59.8819C401.685 60.0616 401.693 60.3038 401.701 60.6085C401.709 60.7647 401.712 60.8663 401.712 60.9131C401.712 61.296 401.451 61.4874 400.927 61.4874C400.576 61.4874 400.4 61.3272 400.4 61.0069L400.435 60.0694C400.498 58.0069 400.556 54.7022 400.611 50.1553C399.509 52.8272 398.189 54.9327 396.65 56.4717C396.634 56.4874 396.611 56.4952 396.58 56.4952C396.439 56.4952 396.369 56.4405 396.369 56.3311C396.369 56.3155 396.377 56.296 396.392 56.2725C398.197 53.8897 399.517 50.9796 400.353 47.5421ZM411.779 51.3858H407.068V52.1592C407.068 52.5264 406.837 52.71 406.377 52.71C406.072 52.71 405.92 52.5655 405.92 52.2764L405.99 48.3858C405.99 46.3858 405.951 45.0264 405.873 44.3077C406.396 44.5108 406.857 44.7413 407.255 44.9991H411.92C412.63 43.9053 413.232 42.7686 413.724 41.5889C413.904 41.1749 414.052 40.7022 414.17 40.171C415.326 40.6631 415.904 41.0147 415.904 41.2256C415.904 41.4288 415.615 41.5421 415.037 41.5655C414.295 42.8233 413.455 43.9678 412.517 44.9991H414.896C415.295 44.585 415.533 44.378 415.611 44.378C415.689 44.378 415.943 44.5616 416.373 44.9288C416.615 45.1163 416.736 45.2686 416.736 45.3858C416.736 45.5264 416.537 45.7178 416.138 45.96V48.0928L416.209 51.96C416.209 52.3272 415.978 52.5108 415.517 52.5108C415.212 52.5108 415.06 52.3585 415.06 52.0538V51.3858H412.88V58.8506C412.88 59.2491 413.017 59.5147 413.291 59.6475C413.517 59.7569 413.923 59.8116 414.509 59.8116C415.752 59.8116 416.537 59.6592 416.865 59.3546C417.091 59.128 417.361 58.2296 417.673 56.6592C417.689 56.6124 417.724 56.5889 417.779 56.5889C417.888 56.5889 417.943 56.628 417.943 56.7061L417.873 58.5811C417.873 58.8858 417.986 59.0616 418.212 59.1085C418.447 59.1866 418.564 59.3546 418.564 59.6124C418.564 59.9796 418.306 60.2686 417.791 60.4796C417.142 60.7374 416.154 60.8663 414.826 60.8663C413.513 60.8663 412.658 60.7217 412.259 60.4327C411.923 60.1827 411.755 59.7256 411.755 59.0616L411.779 56.5655V51.3858ZM407.068 50.7881H415.06V45.5967H407.068V50.7881ZM409.037 44.4014C408.763 44.4014 408.572 44.171 408.462 43.71C408.181 42.585 407.619 41.5577 406.775 40.628C406.767 40.6202 406.763 40.6085 406.763 40.5928C406.763 40.4835 406.834 40.4288 406.974 40.4288C406.99 40.4288 407.005 40.4327 407.021 40.4405C407.834 40.8858 408.509 41.4483 409.048 42.128C409.486 42.6905 409.705 43.1671 409.705 43.5577C409.705 44.1202 409.482 44.4014 409.037 44.4014ZM403.306 61.3467C403.298 61.3467 403.287 61.3467 403.271 61.3467C403.185 61.3467 403.142 61.2764 403.142 61.1358C403.142 61.0967 403.154 61.0694 403.177 61.0538C404.873 60.1944 406.138 59.1592 406.974 57.9483C407.693 56.9092 408.166 55.6397 408.392 54.1397C408.486 53.4288 408.533 52.878 408.533 52.4874C408.533 52.3233 408.525 52.1788 408.509 52.0538C409.728 52.1944 410.337 52.3702 410.337 52.5811C410.337 52.7608 410.103 52.9288 409.634 53.085C409.431 55.335 408.767 57.128 407.642 58.4639C406.658 59.6436 405.212 60.6046 403.306 61.3467Z" fill="#8B6C3A"/>
<path d="M427.304 44.9053C427.054 44.9053 426.862 44.7139 426.73 44.3311C426.362 43.1358 425.632 42.0147 424.538 40.9678C424.523 40.9522 424.515 40.9327 424.515 40.9092C424.515 40.8155 424.57 40.7686 424.679 40.7686C424.695 40.7686 424.71 40.7725 424.726 40.7803C425.741 41.2178 426.566 41.7725 427.198 42.4444C427.737 43.0069 428.007 43.5147 428.007 43.9678C428.007 44.2413 427.929 44.4717 427.773 44.6592C427.64 44.8233 427.484 44.9053 427.304 44.9053ZM443.288 57.2569C443.187 57.2569 442.948 57.1124 442.573 56.8233C440.745 55.4483 439.304 53.6905 438.249 51.5499C437.632 50.3077 437.159 48.6671 436.831 46.628C435.855 50.8624 433.421 54.3116 429.53 56.9756C429.523 56.9835 429.511 56.9874 429.495 56.9874C429.378 56.9874 429.32 56.921 429.32 56.7881C429.32 56.7647 429.327 56.7452 429.343 56.7296C431.749 54.7296 433.495 52.4639 434.581 49.9327C435.511 47.7686 436.062 45.1866 436.234 42.1866H433.034C432.308 42.1866 431.687 42.2335 431.171 42.3272L430.948 41.4483C431.581 41.5421 432.277 41.5889 433.034 41.5889H435.894C436.308 41.128 436.558 40.8975 436.644 40.8975C436.722 40.8975 436.976 41.0811 437.405 41.4483C437.616 41.6358 437.722 41.7881 437.722 41.9053C437.722 42.0616 437.441 42.2999 436.878 42.6202C436.941 45.9405 437.804 48.9483 439.468 51.6436C440.624 53.503 442.28 54.9913 444.437 56.1085C444.468 56.1163 444.484 56.1358 444.484 56.1671C444.484 56.2608 444.429 56.3194 444.32 56.3428C444.101 56.3975 443.948 56.4678 443.862 56.5538C443.769 56.6397 443.675 56.8038 443.581 57.046C443.503 57.1866 443.405 57.2569 443.288 57.2569ZM424.433 60.5967C424.269 60.5967 423.827 59.9561 423.109 58.6749C423.445 58.5967 423.82 58.4522 424.234 58.2413C425.054 57.8428 425.945 57.2413 426.905 56.4366V50.3428H425.37C424.659 50.3428 424.003 50.4014 423.402 50.5186L423.179 49.6046C423.851 49.6983 424.581 49.7452 425.37 49.7452H426.706C427.152 49.2842 427.417 49.0538 427.503 49.0538C427.573 49.0538 427.851 49.253 428.335 49.6514C428.562 49.8624 428.675 50.0225 428.675 50.1319C428.675 50.2803 428.468 50.4796 428.054 50.7296V56.5655C428.515 57.4483 429.187 58.1124 430.07 58.5577C431.343 59.1358 433.757 59.4249 437.312 59.4249C440.038 59.4249 442.601 59.2217 444.999 58.8155C445.085 58.7999 445.128 58.8506 445.128 58.9678C445.128 59.046 445.101 59.1006 445.046 59.1319C444.741 59.2803 444.554 59.4014 444.484 59.4952C444.421 59.5733 444.378 59.71 444.355 59.9053C444.316 60.1397 444.179 60.2647 443.945 60.2803C441.905 60.46 439.823 60.5499 437.698 60.5499C433.612 60.5499 430.948 60.1241 429.706 59.2725C428.73 58.6163 427.995 57.6905 427.503 56.4952C426.542 57.753 425.628 58.7686 424.761 59.5421C424.761 60.2452 424.652 60.5967 424.433 60.5967Z" fill="#8B6C3A"/>
</svg>
