<svg width="262" height="44" viewBox="0 0 262 44" fill="none" xmlns="http://www.w3.org/2000/svg">
<path d="M13.2539 28.6621H4.75684C4.6709 29.2995 4.50977 30.0264 4.27344 30.8428C3.62174 32.9984 2.29329 34.8675 0.288086 36.4502C0.273763 36.4645 0.255859 36.4717 0.234375 36.4717C0.0983073 36.4717 0.0302734 36.4072 0.0302734 36.2783C0.0302734 36.264 0.0374349 36.2461 0.0517578 36.2246C1.53418 34.4915 2.5153 32.6654 2.99512 30.7461C3.45345 28.8841 3.68262 26.3203 3.68262 23.0547C3.68262 19.9896 3.63965 18.0596 3.55371 17.2646C4.09798 17.4938 4.67448 17.7946 5.2832 18.167H13.082C13.5475 17.6657 13.8304 17.415 13.9307 17.415C14.0452 17.415 14.3675 17.6263 14.8975 18.0488C15.1338 18.2565 15.252 18.4212 15.252 18.543C15.252 18.6719 15.055 18.8688 14.6611 19.1338V24.5479L14.7471 34.5811C14.7471 35.2757 14.4678 35.7734 13.9092 36.0742C13.5583 36.2676 13.2002 36.3643 12.835 36.3643C12.6774 36.3643 12.5771 36.3428 12.5342 36.2998C12.4912 36.2568 12.459 36.1602 12.4375 36.0098C12.3945 35.7233 12.151 35.4834 11.707 35.29C11.3418 35.1182 10.7331 34.9355 9.88086 34.7422C9.82357 34.7279 9.79492 34.6777 9.79492 34.5918C9.79492 34.4701 9.83073 34.4163 9.90234 34.4307C11.0983 34.5452 12.083 34.6025 12.8564 34.6025C13.1214 34.6025 13.2539 34.4414 13.2539 34.1191V28.6621ZM13.2539 28.1143V23.6025H5.08984C5.02539 25.7868 4.94661 27.2907 4.85352 28.1143H13.2539ZM13.2539 23.0547V18.7148H5.08984V23.0547H13.2539Z" fill="#8B6C3A"/>
<path d="M27.3885 22.6357H29.9881C30.3318 22.2419 30.5503 22.0449 30.6434 22.0449C30.7436 22.0449 31.0301 22.2562 31.5027 22.6787C31.7391 22.8936 31.8572 23.0618 31.8572 23.1836C31.8572 23.3555 31.6066 23.5023 31.1053 23.624C30.604 24.598 30.0704 25.4574 29.5047 26.2021C31.3022 27.2692 32.201 28.2002 32.201 28.9951C32.201 29.1885 32.1401 29.3496 32.0184 29.4785C31.9181 29.5859 31.7964 29.6396 31.6531 29.6396C31.4669 29.6396 31.159 29.3675 30.7293 28.8232C30.2638 28.236 29.6408 27.613 28.8602 26.9541C28.101 27.8564 27.1199 28.6908 25.9168 29.457C26.0385 29.5072 26.1997 29.5895 26.4002 29.7041H29.6336C29.9702 29.3532 30.1814 29.1777 30.2674 29.1777C30.3748 29.1777 30.5932 29.3174 30.9227 29.5967C31.1733 29.8115 31.2986 29.9655 31.2986 30.0586C31.2986 30.1947 31.1769 30.363 30.9334 30.5635V31.8848L30.9979 35.2041C30.9979 35.5693 30.7472 35.752 30.2459 35.752C29.895 35.752 29.7195 35.6051 29.7195 35.3115V34.8926H26.2928V35.7949C26.2928 36.1315 26.0278 36.2998 25.4979 36.2998C25.1613 36.2998 24.993 36.1673 24.993 35.9023L25.0574 32.1855V29.9619C24.2267 30.4059 23.5213 30.7497 22.9412 30.9932C22.9341 31.0003 22.9233 31.0039 22.909 31.0039C22.8016 31.0039 22.7479 30.9395 22.7479 30.8105C22.7479 30.7747 22.7622 30.7497 22.7908 30.7354C24.9321 29.4893 26.6795 28.014 28.033 26.3096C27.4386 25.8656 26.6831 25.3893 25.7664 24.8809C25.0717 25.6615 24.2661 26.3597 23.3494 26.9756C23.3351 26.9827 23.3172 26.9863 23.2957 26.9863C23.1668 26.9863 23.1023 26.9219 23.1023 26.793C23.1023 26.7643 23.1095 26.7428 23.1238 26.7285C24.5418 25.375 25.6196 23.8711 26.3572 22.2168C26.615 21.6367 26.7905 21.0889 26.8836 20.5732C27.7072 20.8167 28.2156 20.985 28.409 21.0781C28.5665 21.1569 28.6453 21.2428 28.6453 21.3359C28.6453 21.5007 28.3875 21.626 27.8719 21.7119C27.7 22.0843 27.5389 22.3923 27.3885 22.6357ZM27.0662 23.1836C26.7368 23.6921 26.4074 24.1468 26.0779 24.5479C27.2524 25.0563 28.0724 25.4323 28.5379 25.6758C29.1681 24.7591 29.6515 23.9284 29.9881 23.1836H27.0662ZM29.7195 34.3447V30.252H26.2928V34.3447H29.7195ZM25.2078 19.4668H27.6248V18.1885C27.6248 17.8089 27.589 17.2897 27.5174 16.6309C28.4269 16.724 29.0213 16.8206 29.3006 16.9209C29.4939 16.9925 29.5906 17.0928 29.5906 17.2217C29.5906 17.3864 29.3615 17.569 28.9031 17.7695V19.4668H31.3738C31.7319 19.0514 31.9646 18.8438 32.0721 18.8438C32.2153 18.8438 32.5304 19.0801 33.0174 19.5527C33.268 19.7819 33.3934 19.9645 33.3934 20.1006C33.3934 20.3011 33.1749 20.4121 32.7381 20.4336C32.5089 20.4551 32.3048 20.5589 32.1258 20.7451C31.8322 21.0316 31.4956 21.3324 31.116 21.6475C31.0945 21.6618 31.0695 21.6689 31.0408 21.6689C30.9549 21.6689 30.9119 21.6331 30.9119 21.5615C30.9119 21.5544 30.9155 21.5436 30.9227 21.5293C31.1518 20.9277 31.3094 20.4229 31.3953 20.0146H25.1863C25.1434 20.8096 24.9536 21.4398 24.617 21.9053C24.3377 22.2992 24.0154 22.4961 23.6502 22.4961C23.1919 22.4961 22.9627 22.2705 22.9627 21.8193C22.9627 21.4899 23.1453 21.2178 23.5105 21.0029C24.2983 20.5446 24.7459 19.7461 24.8533 18.6074C24.8676 18.5501 24.907 18.5215 24.9715 18.5215C25.0574 18.5215 25.1076 18.5573 25.1219 18.6289C25.1505 18.8008 25.1792 19.0801 25.2078 19.4668ZM36.4334 21.5186C36.7557 20.0791 36.9454 19.1087 37.0027 18.6074H34.3387C33.8732 18.6074 33.4113 18.6504 32.9529 18.7363L32.7381 17.9092C33.2322 18.0094 33.7586 18.0596 34.3172 18.0596H40.9021C41.4822 17.3864 41.8331 17.0498 41.9549 17.0498C42.0695 17.0498 42.4383 17.3148 43.0613 17.8447C43.3549 18.0811 43.5018 18.2708 43.5018 18.4141C43.5018 18.543 43.4051 18.6074 43.2117 18.6074H38.5281C38.299 19.2018 38.0483 19.7604 37.7762 20.2832L37.0242 21.5186H40.3543C40.7911 21.0459 41.0525 20.8096 41.1385 20.8096C41.2531 20.8096 41.5324 20.9993 41.9764 21.3789C42.2413 21.6081 42.3738 21.7799 42.3738 21.8945C42.3738 22.0378 42.1841 22.2275 41.8045 22.4639V25.418L41.9119 32.0352C41.9119 32.4147 41.6326 32.6045 41.074 32.6045C40.7088 32.6045 40.5262 32.4505 40.5262 32.1426V31.7451H34.7361V32.0996C34.7361 32.4648 34.4712 32.6475 33.9412 32.6475C33.5473 32.6475 33.3504 32.5007 33.3504 32.207L33.4578 25.998C33.4578 23.334 33.422 21.5973 33.3504 20.7881C33.7801 20.9528 34.285 21.1963 34.865 21.5186H36.4334ZM40.5262 24.6768V22.0664H34.7361V24.6768H40.5262ZM34.7361 25.2246V27.8027H40.5262V25.2246H34.7361ZM34.7361 28.3506V31.1973H40.5262V28.3506H34.7361ZM38.5818 33.2383C38.5389 33.2168 38.5174 33.1846 38.5174 33.1416C38.5174 33.0342 38.5639 32.9876 38.657 33.002C40.0822 33.2526 41.2244 33.7002 42.0838 34.3447C42.7713 34.8675 43.115 35.3939 43.115 35.9238C43.115 36.153 43.0542 36.3356 42.9324 36.4717C42.825 36.5934 42.6961 36.6543 42.5457 36.6543C42.2736 36.6543 42.0372 36.4824 41.8367 36.1387C41.0203 34.9141 39.9354 33.9473 38.5818 33.2383ZM30.7938 36.6543C30.6792 36.6758 30.6219 36.6113 30.6219 36.4609C30.6219 36.4108 30.6434 36.3786 30.6863 36.3643C31.9897 35.7985 33.1785 35.0501 34.2527 34.1191C34.7827 33.6465 35.1694 33.2132 35.4129 32.8193C36.5301 33.4209 37.0887 33.8148 37.0887 34.001C37.0887 34.1657 36.9168 34.248 36.573 34.248C36.4298 34.248 36.2723 34.2337 36.1004 34.2051C34.5535 35.3724 32.7846 36.1888 30.7938 36.6543Z" fill="#8B6C3A"/>
<path d="M232.133 24.7109V26.0234C233.539 26.5182 234.242 27.1458 234.242 27.9062C234.242 28.2812 234.073 28.4688 233.734 28.4688C233.552 28.4688 233.401 28.3047 233.281 27.9766C233.031 27.2786 232.648 26.7344 232.133 26.3438V28.6172L232.148 33.6562C232.148 33.9635 231.956 34.1172 231.57 34.1172C231.273 34.1172 231.125 33.9896 231.125 33.7344C231.125 33.6823 231.133 33.3984 231.148 32.8828C231.195 31.2161 231.234 29.1745 231.266 26.7578C230.552 28.4557 229.698 29.7734 228.703 30.7109C228.688 30.7214 228.669 30.7266 228.648 30.7266C228.549 30.7266 228.5 30.6875 228.5 30.6094C228.5 30.599 228.503 30.5885 228.508 30.5781C229.695 28.9271 230.547 26.9714 231.062 24.7109H229.797C229.484 24.7109 229.174 24.7422 228.867 24.8047L228.703 24.1953C229.094 24.2734 229.458 24.3125 229.797 24.3125H231.203V21.6719C230.635 21.8177 229.896 21.9453 228.984 22.0547C228.917 22.0651 228.883 22.0234 228.883 21.9297C228.883 21.888 228.901 21.8594 228.938 21.8438C230.411 21.4375 231.648 20.9323 232.648 20.3281C232.956 20.1354 233.216 19.9323 233.43 19.7188C234.102 20.2188 234.438 20.5208 234.438 20.625C234.438 20.7552 234.326 20.8203 234.102 20.8203C234.003 20.8203 233.875 20.8099 233.719 20.7891C233.224 21.0286 232.695 21.237 232.133 21.4141V24.3125H232.969C233.297 23.875 233.503 23.6562 233.586 23.6562C233.68 23.6562 233.93 23.8281 234.336 24.1719C234.518 24.3229 234.609 24.4505 234.609 24.5547C234.609 24.6589 234.542 24.7109 234.406 24.7109H232.133ZM239.797 27.2891V32.2656C239.797 32.5052 239.875 32.6615 240.031 32.7344C240.167 32.7917 240.43 32.8203 240.82 32.8203C241.513 32.8203 241.958 32.7188 242.156 32.5156C242.359 32.3177 242.573 31.7057 242.797 30.6797C242.807 30.638 242.841 30.6172 242.898 30.6172C242.971 30.6172 243.008 30.6432 243.008 30.6953C242.987 31.3359 242.977 31.8047 242.977 32.1016C242.977 32.2786 243.062 32.3958 243.234 32.4531C243.417 32.5 243.508 32.6328 243.508 32.8516C243.508 33.1224 243.305 33.3359 242.898 33.4922C242.451 33.6432 241.784 33.7188 240.898 33.7188C240.044 33.7188 239.477 33.6172 239.195 33.4141C238.956 33.237 238.836 32.9271 238.836 32.4844L238.852 31V27.2891H235.844V27.8047C235.844 28.0495 235.651 28.1719 235.266 28.1719C235 28.1719 234.867 28.0599 234.867 27.8359L234.914 24.9375C234.914 23.7448 234.893 22.9062 234.852 22.4219C235.273 22.6042 235.646 22.7917 235.969 22.9844H238.945C239.268 22.4792 239.628 21.7578 240.023 20.8203C240.211 20.362 240.339 19.9844 240.406 19.6875C241.016 19.9635 241.401 20.1536 241.562 20.2578C241.703 20.3464 241.773 20.4297 241.773 20.5078C241.773 20.6484 241.57 20.7266 241.164 20.7422C240.674 21.5339 240.096 22.2812 239.43 22.9844H240.883C241.185 22.6406 241.375 22.4688 241.453 22.4688C241.536 22.4688 241.734 22.6016 242.047 22.8672C242.24 23.0339 242.336 23.1693 242.336 23.2734C242.336 23.3672 242.203 23.5 241.938 23.6719V24.8594L241.984 27.6562C241.984 27.9219 241.786 28.0547 241.391 28.0547C241.125 28.0547 240.992 27.9531 240.992 27.75V27.2891H239.797ZM240.992 26.8906V23.3828H235.844V26.8906H240.992ZM235.484 20.0391C235.469 20.0286 235.461 20.0156 235.461 20C235.461 19.9219 235.503 19.8828 235.586 19.8828C235.602 19.8828 235.615 19.8854 235.625 19.8906C236.255 20.1927 236.753 20.5547 237.117 20.9766C237.419 21.3255 237.57 21.6484 237.57 21.9453C237.57 22.1641 237.51 22.3385 237.391 22.4688C237.286 22.5781 237.159 22.6328 237.008 22.6328C236.758 22.6328 236.596 22.4245 236.523 22.0078C236.367 21.263 236.021 20.6068 235.484 20.0391ZM233.102 34.0234C233.091 34.0234 233.083 34.0234 233.078 34.0234C233.01 34.0234 232.977 33.974 232.977 33.875C232.977 33.8385 232.99 33.8125 233.016 33.7969C234.13 33.2344 234.969 32.5547 235.531 31.7578C236.01 31.0755 236.328 30.2474 236.484 29.2734C236.573 28.7214 236.617 28.2552 236.617 27.875C236.617 27.8281 236.612 27.7812 236.602 27.7344C237.258 27.8333 237.661 27.9062 237.812 27.9531C237.964 27.9948 238.039 28.0599 238.039 28.1484C238.039 28.2682 237.88 28.3802 237.562 28.4844C237.401 30.0365 236.927 31.2578 236.141 32.1484C235.453 32.9297 234.44 33.5547 233.102 34.0234Z" fill="#8B6C3A"/>
<path d="M247.311 20.2656C247.301 20.25 247.295 20.2344 247.295 20.2188C247.295 20.1615 247.332 20.1328 247.405 20.1328C247.42 20.1328 247.433 20.1354 247.444 20.1406C248.209 20.4167 248.811 20.7708 249.248 21.2031C249.618 21.5625 249.803 21.9115 249.803 22.25C249.803 22.4896 249.738 22.6797 249.608 22.8203C249.493 22.9505 249.34 23.0156 249.147 23.0156C248.928 23.0156 248.759 22.8125 248.639 22.4062C248.415 21.6094 247.972 20.8958 247.311 20.2656ZM260.85 30.1797C260.871 30.1901 260.881 30.2057 260.881 30.2266C260.881 30.2786 260.85 30.3177 260.788 30.3438C260.605 30.401 260.472 30.4818 260.389 30.5859C260.306 30.6797 260.22 30.8385 260.131 31.0625C260.074 31.2031 259.998 31.2734 259.905 31.2734C259.811 31.2734 259.631 31.1615 259.366 30.9375C258.324 30.026 257.511 29.0339 256.928 27.9609C256.449 27.0807 256.027 25.8333 255.663 24.2188C254.881 27.0677 253.215 29.3516 250.663 31.0703C250.652 31.0755 250.642 31.0781 250.631 31.0781C250.553 31.0781 250.514 31.0286 250.514 30.9297C250.514 30.9089 250.519 30.8906 250.53 30.875C251.998 29.526 253.097 28.0234 253.827 26.3672C254.488 24.8724 254.918 23.1042 255.116 21.0625H252.928C252.558 21.0625 252.173 21.0938 251.772 21.1562L251.631 20.5391C252.006 20.6224 252.433 20.6641 252.913 20.6641H254.897C255.225 20.3203 255.428 20.1484 255.506 20.1484C255.574 20.1484 255.759 20.2812 256.061 20.5469C256.254 20.724 256.35 20.8464 256.35 20.9141C256.35 21.013 256.116 21.2005 255.647 21.4766C255.72 23.6432 256.311 25.5521 257.42 27.2031C257.941 27.9792 258.506 28.6094 259.116 29.0938C259.558 29.4531 260.136 29.8151 260.85 30.1797ZM261.108 32.1328C261.165 32.1224 261.194 32.1536 261.194 32.2266C261.194 32.2734 261.176 32.3073 261.139 32.3281C260.931 32.4427 260.795 32.5521 260.733 32.6562C260.676 32.75 260.636 32.8958 260.616 33.0938C260.59 33.25 260.493 33.3359 260.327 33.3516C259.129 33.4557 257.764 33.5078 256.233 33.5078C253.472 33.5078 251.676 33.2135 250.842 32.625C250.202 32.1875 249.712 31.5286 249.373 30.6484C248.811 31.4505 248.202 32.1849 247.545 32.8516C247.545 32.9089 247.545 32.9505 247.545 32.9766C247.545 33.3724 247.465 33.5703 247.303 33.5703C247.173 33.5703 246.85 33.0755 246.334 32.0859C246.584 32.0182 246.876 31.901 247.209 31.7344C247.756 31.4531 248.274 31.1016 248.764 30.6797V26.5781H247.725C247.308 26.5781 246.913 26.6172 246.538 26.6953L246.381 26.0547C246.772 26.138 247.22 26.1797 247.725 26.1797H248.655C248.993 25.8047 249.199 25.6172 249.272 25.6172C249.366 25.6172 249.584 25.7682 249.928 26.0703C250.1 26.2161 250.186 26.3438 250.186 26.4531C250.186 26.5469 250.043 26.6901 249.756 26.8828V30.7109C250.095 31.3464 250.564 31.7943 251.163 32.0547C251.97 32.3724 253.472 32.5312 255.67 32.5312C257.399 32.5312 259.212 32.3984 261.108 32.1328Z" fill="#8B6C3A"/>
<path d="M63.8594 28.7812H70.7344V29.7344H63.8594V32.8125C63.8594 34.3854 63.9688 35.3281 64.1875 35.6406C64.4062 35.9427 64.7865 36.151 65.3281 36.2656C65.5677 36.3177 66.0104 36.3646 66.6562 36.4062C66.8438 36.4062 66.9375 36.526 66.9375 36.7656C66.9375 36.974 66.8438 37.0781 66.6562 37.0781C65.0938 36.9948 63.8854 36.9531 63.0312 36.9531C62.1771 36.9531 61.0312 36.9948 59.5938 37.0781C59.4062 37.0781 59.3125 36.974 59.3125 36.7656C59.3125 36.5573 59.4062 36.4375 59.5938 36.4062C60.6875 36.3229 61.3802 36.0885 61.6719 35.7031C61.974 35.3073 62.125 34.3438 62.125 32.8125V29.7344H55.3438V28.7812H62.125V27.5625L62.0938 26.5781L61.5156 25.5156H55.3438V24.5625H60.9062L57.4844 18.9219C56.599 17.4844 55.9688 16.5573 55.5938 16.1406C55.1042 15.5781 54.3438 15.2812 53.3125 15.25C53.1042 15.2188 53 15.099 53 14.8906C53 14.6615 53.1042 14.5469 53.3125 14.5469C54.9167 14.6302 56.1667 14.6719 57.0625 14.6719C57.8333 14.6719 58.9375 14.6302 60.375 14.5469C60.5417 14.5469 60.625 14.651 60.625 14.8594C60.625 15.0885 60.5417 15.2188 60.375 15.25C59.5625 15.3229 59.0677 15.3802 58.8906 15.4219C58.4948 15.5156 58.25 15.6615 58.1562 15.8594C58.1146 15.9427 58.0938 16.0365 58.0938 16.1406C58.0938 16.4844 58.4427 17.2292 59.1406 18.375L62.25 23.5C62.6458 24.1458 63.0521 24.8177 63.4688 25.5156C63.5729 25.349 63.8385 24.9427 64.2656 24.2969C64.5469 23.8698 64.776 23.5104 64.9531 23.2188L67.5781 18.9531C68.3281 17.7135 68.7031 16.8594 68.7031 16.3906C68.7031 16.2656 68.6875 16.151 68.6562 16.0469C68.5833 15.7344 68.4062 15.526 68.125 15.4219C67.9375 15.3594 67.5469 15.3021 66.9531 15.25C66.7656 15.2188 66.6719 15.099 66.6719 14.8906C66.6719 14.6615 66.7656 14.5469 66.9531 14.5469C68.4635 14.6302 69.375 14.6719 69.6875 14.6719C70.3438 14.6719 71.3906 14.6302 72.8281 14.5469C73.0365 14.5469 73.1406 14.651 73.1406 14.8594C73.1406 15.0885 73.0365 15.2188 72.8281 15.25C72.2969 15.3021 71.9167 15.3802 71.6875 15.4844C71.4583 15.5885 71.1979 15.776 70.9062 16.0469C70.5938 16.3594 69.8438 17.4479 68.6562 19.3125L65.2969 24.5625H70.7344V25.5156H64.6875L63.8906 26.7344L63.8594 28.0469V28.7812Z" fill="#8B6C3A"/>
<path d="M97.1258 36.5596C94.9936 36.4945 91.8768 36.4619 87.7752 36.4619C83.9829 36.4619 81.0532 36.4945 78.9861 36.5596C78.5792 36.5596 78.3758 36.2585 78.3758 35.6562C78.3758 35.1354 78.4897 34.6797 78.7176 34.2891C80.1499 32.0267 81.6473 29.8864 83.2098 27.8682C83.9096 26.9567 85.5454 24.9303 88.117 21.7891C90.9165 18.5176 92.6906 16.2227 93.4393 14.9043C94.4646 13.1139 94.9773 11.2259 94.9773 9.24023C94.9773 7.12435 94.3914 5.39909 93.2195 4.06445C92.129 2.8112 90.6967 2.18457 88.9227 2.18457C87.6043 2.18457 86.4324 2.54264 85.407 3.25879C84.6583 3.77962 84.0805 4.40625 83.6736 5.13867C83.2505 5.95247 83.0389 7.18945 83.0389 8.84961C83.0389 9.58203 82.7133 10.1436 82.0623 10.5342C81.5903 10.8109 81.0288 10.9492 80.3777 10.9492C79.5802 10.9492 79.1814 10.3633 79.1814 9.19141C79.1814 7.17318 80.1906 5.24447 82.2088 3.40527C84.1456 1.63118 86.3836 0.744141 88.9227 0.744141C91.9988 0.744141 94.3833 1.66374 96.076 3.50293C97.5083 5.04915 98.2244 7.01042 98.2244 9.38672C98.2244 12.1862 97.3699 14.7008 95.6609 16.9307C95.075 17.6956 93.2439 19.6162 90.1678 22.6924C85.2361 27.6403 82.0704 31.3919 80.6707 33.9473H89.0691C91.3803 33.9473 92.9754 33.8659 93.8543 33.7031C94.5379 33.5729 95.1157 33.3369 95.5877 32.9951C96.6131 32.2139 97.4757 30.863 98.1756 28.9424C98.2407 28.6982 98.379 28.5762 98.5906 28.5762C98.672 28.5762 98.7859 28.6006 98.9324 28.6494C99.2579 28.7471 99.4207 28.8773 99.4207 29.04C99.4207 29.0889 99.4044 29.154 99.3719 29.2354C98.6232 31.9046 97.8745 34.346 97.1258 36.5596Z" fill="#8B6C3A"/>
<path d="M125.173 18.8594C123.285 21.4635 120.982 22.7656 118.263 22.7656C115.334 22.7656 112.949 21.6182 111.11 19.3232C109.515 17.3376 108.718 14.9124 108.718 12.0479C108.718 8.66243 109.816 5.85482 112.013 3.625C113.901 1.70443 116.115 0.744141 118.654 0.744141C121.795 0.744141 124.318 2.10319 126.222 4.82129C127.948 7.27897 128.81 10.3877 128.81 14.1475C128.81 23.1969 125.864 29.7643 119.972 33.8496C117.629 35.4609 115.073 36.6491 112.306 37.4141C111.818 37.4141 111.387 37.1292 111.012 36.5596C110.85 36.2829 110.768 36.0306 110.768 35.8027C110.768 35.5098 110.915 35.3633 111.208 35.3633C113.828 35.2656 116.115 34.5983 118.068 33.3613C120.298 31.929 121.999 30.041 123.171 27.6973C124.31 25.4512 125.091 22.554 125.514 19.0059L125.173 18.8594ZM118.654 2.18457C116.489 2.18457 114.772 3.22624 113.503 5.30957C112.445 7.05111 111.916 9.19954 111.916 11.7549C111.916 14.6195 112.591 16.9307 113.942 18.6885C115.163 20.2998 116.734 21.1055 118.654 21.1055C121.275 21.1055 123.342 19.6569 124.855 16.7598C125.392 15.7344 125.661 14.5625 125.661 13.2441C125.661 9.69596 124.953 6.90462 123.537 4.87012C122.284 3.07975 120.656 2.18457 118.654 2.18457Z" fill="#8B6C3A"/>
<path d="M136.479 35.6562C136.479 38.3255 134.949 40.7425 131.889 42.9072C131.743 43.0049 131.621 43.0537 131.523 43.0537C131.409 43.0537 131.263 42.9479 131.084 42.7363C130.954 42.5736 130.888 42.4352 130.888 42.3213C130.888 42.2074 130.986 42.0853 131.181 41.9551C133.053 40.6204 133.989 39.2858 133.989 37.9512C133.989 37.5117 133.737 37.1292 133.232 36.8037C132.614 36.4294 132.256 36.1934 132.158 36.0957C131.849 35.819 131.694 35.5179 131.694 35.1924C131.694 34.46 131.979 33.8089 132.549 33.2393C133.053 32.751 133.615 32.5068 134.233 32.5068C134.803 32.5068 135.316 32.7998 135.771 33.3857C136.243 33.9717 136.479 34.7285 136.479 35.6562Z" fill="#8B6C3A"/>
<path d="M154.186 17.0527C156.921 18.485 158.898 20.0475 160.119 21.7402C161.291 23.3841 161.877 25.2884 161.877 27.4531C161.877 30.4479 160.851 32.9056 158.801 34.8262C156.961 36.5514 154.675 37.4141 151.94 37.4141C148.685 37.4141 146.081 36.3561 144.128 34.2402C142.5 32.4499 141.686 30.277 141.686 27.7217C141.686 23.8643 144.282 20.609 149.474 17.9561C144.95 15.6123 142.687 12.6419 142.687 9.04492C142.687 6.66862 143.705 4.63411 145.739 2.94141C147.513 1.47656 149.564 0.744141 151.891 0.744141C154.61 0.744141 156.856 1.61491 158.63 3.35645C160.16 4.87012 160.925 6.65234 160.925 8.70312C160.925 10.7051 160.282 12.4141 158.996 13.8301C157.922 15.0182 156.318 16.0924 154.186 17.0527ZM152.648 16.3447C154.487 15.6774 155.928 14.5544 156.97 12.9756C157.832 11.6735 158.263 10.2819 158.263 8.80078C158.263 6.83138 157.58 5.19564 156.213 3.89355C155.025 2.75423 153.584 2.18457 151.891 2.18457C149.922 2.18457 148.303 2.93327 147.033 4.43066C145.975 5.65137 145.446 7.01855 145.446 8.53223C145.446 10.29 145.918 11.6979 146.862 12.7559C147.92 13.944 149.849 15.1403 152.648 16.3447ZM150.939 18.6152C148.856 19.6569 147.245 21.0485 146.105 22.79C145.096 24.3363 144.592 25.9801 144.592 27.7217C144.592 30.3421 145.34 32.4173 146.838 33.9473C148.156 35.2982 149.857 35.9736 151.94 35.9736C154.121 35.9736 155.928 35.1029 157.36 33.3613C158.565 31.8802 159.167 30.1468 159.167 28.1611C159.167 26.0127 158.491 24.1979 157.14 22.7168C155.887 21.3496 153.82 19.9824 150.939 18.6152Z" fill="#8B6C3A"/>
<path d="M181.843 0.744141C185.033 0.744141 187.572 2.63216 189.46 6.4082C191.104 9.71224 191.926 13.9115 191.926 19.0059C191.926 24.9629 190.884 29.6341 188.801 33.0195C186.994 35.9492 184.675 37.4141 181.843 37.4141C178.441 37.4141 175.845 35.583 174.054 31.9209C172.508 28.7633 171.735 24.556 171.735 19.2988C171.735 13.2279 172.793 8.49967 174.909 5.11426C176.716 2.20085 179.027 0.744141 181.843 0.744141ZM181.843 2.18457C177.269 2.18457 174.982 7.8405 174.982 19.1523C174.982 30.3665 177.269 35.9736 181.843 35.9736C186.4 35.9736 188.679 30.3665 188.679 19.1523C188.679 7.8405 186.4 2.18457 181.843 2.18457Z" fill="#8B6C3A"/>
<path d="M211.843 0.744141C215.033 0.744141 217.572 2.63216 219.46 6.4082C221.104 9.71224 221.926 13.9115 221.926 19.0059C221.926 24.9629 220.884 29.6341 218.801 33.0195C216.994 35.9492 214.675 37.4141 211.843 37.4141C208.441 37.4141 205.845 35.583 204.054 31.9209C202.508 28.7633 201.735 24.556 201.735 19.2988C201.735 13.2279 202.793 8.49967 204.909 5.11426C206.716 2.20085 209.027 0.744141 211.843 0.744141ZM211.843 2.18457C207.269 2.18457 204.982 7.8405 204.982 19.1523C204.982 30.3665 207.269 35.9736 211.843 35.9736C216.4 35.9736 218.679 30.3665 218.679 19.1523C218.679 7.8405 216.4 2.18457 211.843 2.18457Z" fill="#8B6C3A"/>
</svg>
